HIERARCHY
ROOT Hips
{
	OFFSET 0.000000 0.000000 0.000000
	CHANNELS 6 Xposition Yposition Zposition Xrotation Yrotation Zrotation
	JOINT LeftUpLeg_virtual
	{
		OFFSET 0.000000 0.000000 0.000000
		CHANNELS 3 Xrotation Yrotation Zrotation
		JOINT LeftUpLeg
		{
			OFFSET 10.205400 -3.823500 0.155100
			CHANNELS 3 Xrotation Yrotation Zrotation
			JOINT LeftLeg
			{
				OFFSET 0.708757 -12.982077 0.567790
				CHANNELS 3 Xrotation Yrotation Zrotation
				JOINT LeftFoot
				{
					OFFSET -0.708756 -10.717838 -2.184338
					CHANNELS 3 Xrotation Yrotation Zrotation
					JOINT LeftToeBase
					{
						OFFSET 0.108149 -7.191104 7.560241
						CHANNELS 3 Xrotation Yrotation Zrotation
						JOINT LeftToe_End
						{
							OFFSET 0.070230 0.081724 4.490308
							CHANNELS 3 Xrotation Yrotation Zrotation
							End Site
							{
								OFFSET 0 0 0
							}
						}
					}
				}
			}
		}
	}
	JOINT RightUpLeg_virtual
	{
		OFFSET 0.000000 0.000000 0.000000
		CHANNELS 3 Xrotation Yrotation Zrotation
		JOINT RightUpLeg
		{
			OFFSET -10.205400 -3.823500 0.005500
			CHANNELS 3 Xrotation Yrotation Zrotation
			JOINT RightLeg
			{
				OFFSET -0.708756 -12.982134 0.610632
				CHANNELS 3 Xrotation Yrotation Zrotation
				JOINT RightFoot
				{
					OFFSET 0.708754 -10.717769 -1.945823
					CHANNELS 3 Xrotation Yrotation Zrotation
					JOINT RightToeBase
					{
						OFFSET -0.108140 -7.191069 7.372968
						CHANNELS 3 Xrotation Yrotation Zrotation
						JOINT RightToe_End
						{
							OFFSET -0.070227 0.081735 4.479403
							CHANNELS 3 Xrotation Yrotation Zrotation
							End Site
							{
								OFFSET 0 0 0
							}
						}
					}
				}
			}
		}
	}
	JOINT Spine_virtual
	{
		OFFSET 0.000000 0.000000 0.000000
		CHANNELS 3 Xrotation Yrotation Zrotation
		JOINT Spine
		{
			OFFSET 0.000000 6.876099 0.125700
			CHANNELS 3 Xrotation Yrotation Zrotation
			JOINT Spine1
			{
				OFFSET 0.000000 5.730043 0.104720
				CHANNELS 3 Xrotation Yrotation Zrotation
				JOINT Spine1_split
				{
					OFFSET 0.000000 5.730043 0.104720
					CHANNELS 3 Xrotation Yrotation Zrotation
					JOINT Spine2
					{
						OFFSET 0.000000 5.730043 0.104720
						CHANNELS 3 Xrotation Yrotation Zrotation
						JOINT Neck_virtual
						{
							OFFSET 0.000000 0.000000 0.000000
							CHANNELS 3 Xrotation Yrotation Zrotation
							JOINT Neck
							{
								OFFSET 0.000000 10.314075 0.188496
								CHANNELS 3 Xrotation Yrotation Zrotation
								JOINT Head
								{
									OFFSET 0.000000 7.643700 -2.377400
									CHANNELS 3 Xrotation Yrotation Zrotation
									JOINT HeadTop_End
									{
										OFFSET 0.000000 43.788605 -13.619600
										CHANNELS 3 Xrotation Yrotation Zrotation
										End Site
										{
											OFFSET 0 0 0
										}
									}
								}
							}
						}
						JOINT LeftShoulder_virtual
						{
							OFFSET 0.000000 0.000000 0.000000
							CHANNELS 3 Xrotation Yrotation Zrotation
							JOINT LeftShoulder
							{
								OFFSET 2.196100 4.412489 0.087492
								CHANNELS 3 Xrotation Yrotation Zrotation
								JOINT LeftShoulder_split
								{
									OFFSET 2.196100 4.412489 0.087492
									CHANNELS 3 Xrotation Yrotation Zrotation
									JOINT LeftArm
									{
										OFFSET 8.771219 -2.981674 -0.026999
										CHANNELS 3 Xrotation Yrotation Zrotation
										JOINT LeftForeArm
										{
											OFFSET 8.512804 0.000000 -0.000000
											CHANNELS 3 Xrotation Yrotation Zrotation
											JOINT LeftHand
											{
												OFFSET 18.484802 0.000000 -0.000000
												CHANNELS 3 Xrotation Yrotation Zrotation
												End Site
												{
													OFFSET 0 0 0
												}
											}
										}
									}
								}
							}
						}
						JOINT RightShoulder_virtual
						{
							OFFSET 0.000000 0.000000 0.000000
							CHANNELS 3 Xrotation Yrotation Zrotation
							JOINT RightShoulder
							{
								OFFSET -2.196100 4.412496 0.070690
								CHANNELS 3 Xrotation Yrotation Zrotation
								JOINT RightShoulder_split
								{
									OFFSET -2.196100 4.412496 0.070690
									CHANNELS 3 Xrotation Yrotation Zrotation
									JOINT RightArm
									{
										OFFSET -8.771282 -2.981682 -0.094208
										CHANNELS 3 Xrotation Yrotation Zrotation
										JOINT RightForeArm
										{
											OFFSET -8.494598 0.000000 0.000000
											CHANNELS 3 Xrotation Yrotation Zrotation
											JOINT RightHand
											{
												OFFSET -18.483803 0.000000 0.000001
												CHANNELS 3 Xrotation Yrotation Zrotation
												End Site
												{
													OFFSET 0 0 0
												}
											}
										}
									}
								}
							}
						}
					}
				}
			}
		}
	}
}
MOTION
Frames: 5
Frame Time: 0.03333333
2.091350 35.766968 -2.800357 0.000000 0.000000 0.000000 -2.072084 -3.213085 -2.552576 -11.631865 16.377218 12.840717 17.394542 0.892718 4.794903 -5.194037 3.276411 -18.111085 -1.183375 -3.635629 0.612141 0.000000 0.000000 0.000000 -1.904733 -2.889678 -2.622913 10.507418 -10.506967 1.126024 4.247737 -2.207261 2.359654 -15.768477 -8.019865 9.879317 -3.479591 0.278324 -5.625178 0.000000 0.000000 0.000000 -2.267082 -1.026827 -2.797257 3.107054 -1.024321 3.764917 -0.508483 0.208965 2.030383 0.135098 -0.183264 -0.020691 0.000000 0.000000 0.000000 0.798642 2.170118 1.915203 8.614936 2.676672 0.801578 -6.140448 -14.530036 -11.947765 0.000000 0.000000 0.000000 -0.258730 0.802661 1.298226 -1.564799 -18.005591 -14.365862 -0.107524 0.434545 -4.150759 12.645675 -22.906171 -65.909700 0.303571 -5.737834 2.661726 0.000000 0.000000 0.000000 0.630025 1.153954 2.064733 1.268552 9.596076 13.530244 -4.441948 0.562607 1.455060 10.539497 28.900696 62.275192 -3.573250 -0.601902 0.971663 0.000000 0.000000 0.000000 
2.102130 35.763222 -2.782410 0.000000 0.000000 0.000000 -2.105094 -3.320812 -2.576447 -11.565744 16.348148 12.827885 17.475256 0.929937 4.772767 -5.232300 3.406838 -18.040726 -1.173252 -3.645520 0.610026 0.000000 0.000000 0.000000 -1.916757 -2.930292 -2.630641 10.554917 -10.459994 1.147942 4.213435 -2.170690 2.323404 -15.704058 -8.159052 9.818389 -3.288410 0.259025 -5.525892 0.000000 0.000000 0.000000 -2.322080 -1.122731 -2.839170 3.146469 -1.046236 3.761932 -0.499353 0.201540 2.044927 0.130614 -0.183813 -0.026601 0.000000 0.000000 0.000000 0.796538 2.169332 1.927355 8.601167 2.667977 0.819380 -6.200383 -14.478787 -11.908711 0.000000 0.000000 0.000000 -0.241125 0.796847 1.318614 -1.564927 -18.061219 -14.371927 -0.126961 0.379756 -4.096610 12.551603 -22.904503 -65.957846 0.264154 -5.874226 2.644082 0.000000 0.000000 0.000000 0.625956 1.145768 2.077374 1.248549 9.522180 13.550266 -4.458855 0.553038 1.497313 10.681118 28.888470 62.152993 -3.552336 -0.683207 1.023296 0.000000 0.000000 0.000000 
2.110401 35.753185 -2.765996 0.000000 0.000000 0.000000 -2.170868 -3.539414 -2.614264 -11.422829 16.338863 12.869007 17.624904 0.999486 4.773951 -5.369414 3.649764 -18.008719 -1.196468 -3.657712 0.592136 0.000000 0.000000 0.000000 -1.966169 -3.090499 -2.651956 10.527587 -10.362337 1.166733 4.273474 -1.994378 2.279826 -15.621508 -8.364048 9.874720 -3.053413 0.254080 -5.633324 0.000000 0.000000 0.000000 -2.398437 -1.312317 -2.900201 3.191877 -1.051301 3.771905 -0.480523 0.183188 2.068114 0.125712 -0.180065 -0.032530 0.000000 0.000000 0.000000 0.808947 2.158643 1.940957 8.587291 2.650928 0.853117 -6.334691 -14.395764 -11.897967 0.000000 0.000000 0.000000 -0.216385 0.779980 1.346859 -1.579227 -18.105431 -14.359026 -0.129414 0.345360 -4.107407 12.447341 -22.864420 -66.007898 0.310972 -5.959081 2.683391 0.000000 0.000000 0.000000 0.621782 1.124945 2.096155 1.261549 9.474405 13.566992 -4.557141 0.604813 1.557158 10.984682 28.934918 61.929154 -3.502748 -0.738433 1.058949 0.000000 0.000000 0.000000 
2.109173 35.739136 -2.751671 0.000000 0.000000 0.000000 -2.268694 -3.842360 -2.657498 -11.234016 16.353623 12.949300 17.825238 1.089731 4.782761 -5.579459 3.977833 -18.019683 -1.236679 -3.670957 0.569201 0.000000 0.000000 0.000000 -2.042782 -3.346149 -2.680231 10.456166 -10.217916 1.197914 4.392751 -1.687554 2.217066 -15.576865 -8.605763 9.996829 -2.741943 0.261943 -5.931233 0.000000 0.000000 0.000000 -2.496446 -1.558377 -2.970211 3.239807 -1.032850 3.793859 -0.453682 0.158379 2.094037 0.124266 -0.169981 -0.032810 0.000000 0.000000 0.000000 0.834722 2.139786 1.951728 8.574619 2.621010 0.904036 -6.521933 -14.289968 -11.903199 0.000000 0.000000 0.000000 -0.185430 0.754789 1.374775 -1.611020 -18.142740 -14.322096 -0.152800 0.351268 -4.180415 12.360599 -22.738139 -66.062184 0.421002 -5.963119 2.769155 0.000000 0.000000 0.000000 0.622110 1.095511 2.116893 1.302112 9.462611 13.568819 -4.684020 0.685697 1.619963 11.427192 29.096773 61.622540 -3.420012 -0.774894 1.058149 0.000000 0.000000 0.000000 
2.102911 35.721764 -2.744390 0.000000 0.000000 0.000000 -2.388692 -4.200094 -2.702858 -11.019113 16.385451 13.040073 18.055655 1.195990 4.790622 -5.811937 4.366527 -18.066542 -1.257540 -3.685384 0.547648 0.000000 0.000000 0.000000 -2.143963 -3.664503 -2.711798 10.359230 -10.036376 1.243945 4.548496 -1.279094 2.123576 -15.605725 -8.876862 10.100302 -2.321808 0.274814 -6.379267 0.000000 0.000000 0.000000 -2.617537 -1.854419 -3.037695 3.289778 -0.985324 3.826391 -0.416780 0.132221 2.117042 0.122385 -0.162483 -0.028883 0.000000 0.000000 0.000000 0.869361 2.116223 1.953678 8.562850 2.574644 0.976336 -6.714032 -14.191277 -11.900615 0.000000 0.000000 0.000000 -0.148289 0.723160 1.398186 -1.659577 -18.188584 -14.251716 -0.185786 0.377790 -4.286724 12.302965 -22.506607 -66.106689 0.564654 -5.915891 2.880529 0.000000 0.000000 0.000000 0.631374 1.061949 2.134497 1.366338 9.498468 13.537599 -4.836541 0.738062 1.684060 11.992846 29.411187 61.226909 -3.300895 -0.770069 1.000344 0.000000 0.000000 0.000000 
